<svg width="24" height="24" viewBox="0 0 24 24" fill="none" xmlns="http://www.w3.org/2000/svg">
<g clip-path="url(#clip0_278_98)">
<path fill-rule="evenodd" clip-rule="evenodd" d="M7.94063 13.0599C7.65973 12.7787 7.50195 12.3974 7.50195 11.9999C7.50195 11.6024 7.65973 11.2212 7.94063 10.9399L13.5966 5.2819C13.878 5.00064 14.2596 4.84268 14.6575 4.84277C14.8545 4.84282 15.0495 4.88167 15.2315 4.9571C15.4135 5.03253 15.5789 5.14307 15.7181 5.2824C15.8574 5.42173 15.9679 5.58713 16.0432 5.76915C16.1186 5.95117 16.1573 6.14625 16.1573 6.34325C16.1572 6.54025 16.1184 6.73531 16.0429 6.9173C15.9675 7.09929 15.857 7.26463 15.7176 7.4039L11.1226 11.9999L15.7186 16.5959C15.862 16.7342 15.9763 16.8997 16.055 17.0826C16.1337 17.2656 16.1752 17.4624 16.177 17.6616C16.1788 17.8607 16.141 18.0583 16.0656 18.2427C15.9903 18.427 15.879 18.5946 15.7382 18.7355C15.5975 18.8764 15.43 18.9878 15.2457 19.0633C15.0614 19.1389 14.8639 19.1769 14.6647 19.1753C14.4656 19.1736 14.2687 19.1323 14.0857 19.0538C13.9026 18.9753 13.7371 18.8611 13.5986 18.7179L7.93863 13.0599H7.94063Z" fill="black"/>
</g>
<defs>
<clipPath id="clip0_278_98">
<rect width="24" height="24" fill="white"/>
</clipPath>
</defs>
</svg>
